<?xml version="1.0" encoding="UTF-8"?><COLLADA xmlns="http://www.collada.org/2005/11/COLLADASchema" version="1.4.1"><asset><contributor><authoring_tool>智信场地三维低模生成器</authoring_tool></contributor><unit name="meter" meter="1"/><up_axis>Z_UP</up_axis></asset><library_effects><effect id="terrain-effect"><profile_COMMON><technique sid="common"><phong><diffuse><color>0.31 0.49 0.22 1</color></diffuse><transparency><float>1</float></transparency></phong></technique></profile_COMMON></effect><effect id="concept-effect"><profile_COMMON><technique sid="common"><phong><diffuse><color>0.68 0.36 0.16 1</color></diffuse><transparency><float>0.8</float></transparency></phong></technique></profile_COMMON></effect><effect id="vegetation-effect"><profile_COMMON><technique sid="common"><phong><diffuse><color>0.18 0.50 0.20 1</color></diffuse><transparency><float>0.65</float></transparency></phong></technique></profile_COMMON></effect></library_effects><library_materials><material id="terrain-material" name="terrain"><instance_effect url="#terrain-effect"/></material><material id="concept-material" name="concept"><instance_effect url="#concept-effect"/></material><material id="vegetation-material" name="vegetation"><instance_effect url="#vegetation-effect"/></material></library_materials><library_geometries><geometry id="terrain" name="InterpolatedTerrain"><mesh><source id="terrain-p"><float_array id="terrain-p-array" count="3552">-450.000 -450.000 -0.625 -420.000 -450.000 -0.670 -390.000 -450.000 -0.710 -360.000 -450.000 -0.754 -330.000 -450.000 -0.797 -300.000 -450.000 -0.816 -270.000 -450.000 -0.785 -240.000 -450.000 -0.519 -210.000 -450.000 -0.372 -180.000 -450.000 -0.207 -150.000 -450.000 -0.047 -120.000 -450.000 -0.011 -90.000 -450.000 -0.018 -60.000 -450.000 -0.007 -30.000 -450.000 -0.572 0.000 -450.000 -0.701 30.000 -450.000 -0.565 60.000 -450.000 -1.202 90.000 -450.000 -1.220 120.000 -450.000 -1.192 150.000 -450.000 -1.212 180.000 -450.000 -1.143 210.000 -450.000 -1.206 240.000 -450.000 -1.444 270.000 -450.000 -1.760 300.000 -450.000 -1.868 330.000 -450.000 -1.924 360.000 -450.000 -1.945 390.000 -450.000 -1.774 420.000 -450.000 -1.576 450.000 -450.000 -1.477 480.000 -450.000 -1.414 -450.000 -420.000 -0.667 -420.000 -420.000 -0.717 -390.000 -420.000 -0.771 -360.000 -420.000 -0.840 -330.000 -420.000 -0.933 -300.000 -420.000 -1.013 -270.000 -420.000 -0.997 -240.000 -420.000 -0.713 -210.000 -420.000 -0.504 -180.000 -420.000 -0.273 -150.000 -420.000 -0.055 -120.000 -420.000 0.026 -90.000 -420.000 0.115 -60.000 -420.000 0.098 -30.000 -420.000 -0.158 0.000 -420.000 -0.661 30.000 -420.000 -0.572 60.000 -420.000 -1.167 90.000 -420.000 -1.228 120.000 -420.000 -1.176 150.000 -420.000 -1.155 180.000 -420.000 -1.034 210.000 -420.000 -0.997 240.000 -420.000 -1.419 270.000 -420.000 -2.281 300.000 -420.000 -2.211 330.000 -420.000 -2.260 360.000 -420.000 -2.440 390.000 -420.000 -1.922 420.000 -420.000 -1.582 450.000 -420.000 -1.432 480.000 -420.000 -1.377 -450.000 -390.000 -0.713 -420.000 -390.000 -0.764 -390.000 -390.000 -0.815 -360.000 -390.000 -0.908 -330.000 -390.000 -1.086 -300.000 -390.000 -1.339 -270.000 -390.000 -1.378 -240.000 -390.000 -1.001 -210.000 -390.000 -0.707 -180.000 -390.000 -0.360 -150.000 -390.000 0.057 -120.000 -390.000 0.269 -90.000 -390.000 0.301 -60.000 -390.000 0.174 -30.000 -390.000 -0.097 0.000 -390.000 -0.378 30.000 -390.000 -0.863 60.000 -390.000 -1.163 90.000 -390.000 -1.256 120.000 -390.000 -1.243 150.000 -390.000 -1.128 180.000 -390.000 -0.989 210.000 -390.000 -0.915 240.000 -390.000 -1.284 270.000 -390.000 -2.418 300.000 -390.000 -2.128 330.000 -390.000 -2.168 360.000 -390.000 -2.525 390.000 -390.000 -1.713 420.000 -390.000 -1.405 450.000 -390.000 -1.328 480.000 -390.000 -1.321 -450.000 -360.000 -0.711 -420.000 -360.000 -0.787 -390.000 -360.000 -0.837 -360.000 -360.000 -0.917 -330.000 -360.000 -1.166 -300.000 -360.000 -1.974 -270.000 -360.000 -2.220 -240.000 -360.000 -1.367 -210.000 -360.000 -1.121 -180.000 -360.000 -0.502 -150.000 -360.000 0.093 -120.000 -360.000 0.285 -90.000 -360.000 0.414 -60.000 -360.000 0.438 -30.000 -360.000 0.158 0.000 -360.000 -0.395 30.000 -360.000 -0.914 60.000 -360.000 -1.244 90.000 -360.000 -1.322 120.000 -360.000 -1.280 150.000 -360.000 -1.135 180.000 -360.000 -0.977 210.000 -360.000 -0.930 240.000 -360.000 -0.874 270.000 -360.000 -0.634 300.000 -360.000 -0.702 330.000 -360.000 -0.701 360.000 -360.000 -0.606 390.000 -360.000 -0.908 420.000 -360.000 -1.095 450.000 -360.000 -1.200 480.000 -360.000 -1.266 -450.000 -330.000 -0.755 -420.000 -330.000 -0.882 -390.000 -330.000 -0.800 -360.000 -330.000 -0.884 -330.000 -330.000 -1.054 -300.000 -330.000 -2.660 -270.000 -330.000 -3.420 -240.000 -330.000 -1.423 -210.000 -330.000 -1.882 -180.000 -330.000 -0.485 -150.000 -330.000 0.142 -120.000 -330.000 0.302 -90.000 -330.000 0.485 -60.000 -330.000 0.551 -30.000 -330.000 0.415 0.000 -330.000 -0.628 30.000 -330.000 -0.907 60.000 -330.000 -1.274 90.000 -330.000 -1.484 120.000 -330.000 -1.368 150.000 -330.000 -1.124 180.000 -330.000 -0.986 210.000 -330.000 -0.882 240.000 -330.000 -0.602 270.000 -330.000 0.769 300.000 -330.000 0.313 330.000 -330.000 0.335 360.000 -330.000 0.834 390.000 -330.000 -0.385 420.000 -330.000 -0.921 450.000 -330.000 -1.141 480.000 -330.000 -1.251 -450.000 -300.000 -0.638 -420.000 -300.000 -0.724 -390.000 -300.000 -0.703 -360.000 -300.000 -0.762 -330.000 -300.000 -0.846 -300.000 -300.000 -1.290 -270.000 -300.000 -1.330 -240.000 -300.000 -0.350 -210.000 -300.000 -0.014 -180.000 -300.000 0.464 -150.000 -300.000 0.689 -120.000 -300.000 0.790 -90.000 -300.000 0.761 -60.000 -300.000 0.682 -30.000 -300.000 0.427 0.000 -300.000 -0.489 30.000 -300.000 -1.083 60.000 -300.000 -1.551 90.000 -300.000 -1.667 120.000 -300.000 -1.526 150.000 -300.000 -1.359 180.000 -300.000 -1.057 210.000 -300.000 -0.908 240.000 -300.000 -0.715 270.000 -300.000 -0.308 300.000 -300.000 -0.373 330.000 -300.000 -0.457 360.000 -300.000 -0.418 390.000 -300.000 -0.777 420.000 -300.000 -1.075 450.000 -300.000 -1.239 480.000 -300.000 -1.335 -450.000 -270.000 -0.557 -420.000 -270.000 -0.499 -390.000 -270.000 -0.576 -360.000 -270.000 -0.777 -330.000 -270.000 -0.620 -300.000 -270.000 -0.141 -270.000 -270.000 0.103 -240.000 -270.000 1.070 -210.000 -270.000 2.712 -180.000 -270.000 1.737 -150.000 -270.000 1.211 -120.000 -270.000 1.248 -90.000 -270.000 1.309 -60.000 -270.000 1.112 -30.000 -270.000 0.411 0.000 -270.000 -0.369 30.000 -270.000 -1.353 60.000 -270.000 -1.861 90.000 -270.000 -1.968 120.000 -270.000 -1.795 150.000 -270.000 -1.510 180.000 -270.000 -1.205 210.000 -270.000 -0.918 240.000 -270.000 -0.948 270.000 -270.000 -0.880 300.000 -270.000 -0.958 330.000 -270.000 -1.443 360.000 -270.000 -1.691 390.000 -270.000 -1.386 420.000 -270.000 -1.353 450.000 -270.000 -1.537 480.000 -270.000 -1.608 -450.000 -240.000 -0.221 -420.000 -240.000 -0.285 -390.000 -240.000 -0.397 -360.000 -240.000 -0.593 -330.000 -240.000 -0.353 -300.000 -240.000 0.164 -270.000 -240.000 0.514 -240.000 -240.000 1.678 -210.000 -240.000 2.627 -180.000 -240.000 2.291 -150.000 -240.000 1.682 -120.000 -240.000 1.752 -90.000 -240.000 1.678 -60.000 -240.000 1.107 -30.000 -240.000 0.432 0.000 -240.000 -0.724 30.000 -240.000 -1.701 60.000 -240.000 -2.453 90.000 -240.000 -2.515 120.000 -240.000 -2.217 150.000 -240.000 -1.880 180.000 -240.000 -1.471 210.000 -240.000 -1.160 240.000 -240.000 -1.215 270.000 -240.000 -1.122 300.000 -240.000 -1.255 330.000 -240.000 -1.640 360.000 -240.000 -1.780 390.000 -240.000 -1.766 420.000 -240.000 -1.747 450.000 -240.000 -1.743 480.000 -240.000 -1.840 -450.000 -210.000 -0.110 -420.000 -210.000 -0.160 -390.000 -210.000 -0.239 -360.000 -210.000 -0.477 -330.000 -210.000 -0.049 -300.000 -210.000 0.778 -270.000 -210.000 1.252 -240.000 -210.000 2.233 -210.000 -210.000 3.353 -180.000 -210.000 3.093 -150.000 -210.000 3.327 -120.000 -210.000 3.041 -90.000 -210.000 2.214 -60.000 -210.000 1.208 -30.000 -210.000 0.193 0.000 -210.000 -0.875 30.000 -210.000 -2.114 60.000 -210.000 -3.253 90.000 -210.000 -3.013 120.000 -210.000 -2.598 150.000 -210.000 -2.519 180.000 -210.000 -1.905 210.000 -210.000 -1.783 240.000 -210.000 -1.653 270.000 -210.000 -1.751 300.000 -210.000 -1.750 330.000 -210.000 -2.204 360.000 -210.000 -2.438 390.000 -210.000 -2.149 420.000 -210.000 -1.927 450.000 -210.000 -1.875 480.000 -210.000 -1.837 -450.000 -180.000 0.066 -420.000 -180.000 0.049 -390.000 -180.000 -0.088 -360.000 -180.000 -0.531 -330.000 -180.000 0.064 -300.000 -180.000 1.133 -270.000 -180.000 1.431 -240.000 -180.000 2.891 -210.000 -180.000 3.918 -180.000 -180.000 3.540 -150.000 -180.000 3.852 -120.000 -180.000 3.444 -90.000 -180.000 2.299 -60.000 -180.000 1.123 -30.000 -180.000 -0.007 0.000 -180.000 -0.818 30.000 -180.000 -2.047 60.000 -180.000 -3.426 90.000 -180.000 -3.028 120.000 -180.000 -2.603 150.000 -180.000 -2.675 180.000 -180.000 -2.143 210.000 -180.000 -1.926 240.000 -180.000 -1.952 270.000 -180.000 -1.894 300.000 -180.000 -1.960 330.000 -180.000 -2.472 360.000 -180.000 -2.716 390.000 -180.000 -2.333 420.000 -180.000 -2.129 450.000 -180.000 -1.973 480.000 -180.000 -1.891 -450.000 -150.000 0.507 -420.000 -150.000 0.521 -390.000 -150.000 0.553 -360.000 -150.000 0.700 -330.000 -150.000 1.104 -300.000 -150.000 2.024 -270.000 -150.000 2.650 -240.000 -150.000 3.105 -210.000 -150.000 3.583 -180.000 -150.000 3.520 -150.000 -150.000 3.499 -120.000 -150.000 2.961 -90.000 -150.000 1.593 -60.000 -150.000 0.667 -30.000 -150.000 -0.131 0.000 -150.000 -0.786 30.000 -150.000 -1.360 60.000 -150.000 -1.753 90.000 -150.000 -1.922 120.000 -150.000 -1.888 150.000 -150.000 -1.914 180.000 -150.000 -2.131 210.000 -150.000 -2.244 240.000 -150.000 -2.045 270.000 -150.000 -1.972 300.000 -150.000 -2.097 330.000 -150.000 -2.443 360.000 -150.000 -2.613 390.000 -150.000 -2.549 420.000 -150.000 -2.351 450.000 -150.000 -2.180 480.000 -150.000 -2.089 -450.000 -120.000 0.535 -420.000 -120.000 0.599 -390.000 -120.000 0.861 -360.000 -120.000 1.100 -330.000 -120.000 1.318 -300.000 -120.000 3.003 -270.000 -120.000 3.791 -240.000 -120.000 3.315 -210.000 -120.000 4.118 -180.000 -120.000 3.499 -150.000 -120.000 3.899 -120.000 -120.000 3.185 -90.000 -120.000 0.894 -60.000 -120.000 0.196 -30.000 -120.000 -0.284 0.000 -120.000 -0.882 30.000 -120.000 -1.076 60.000 -120.000 -0.979 90.000 -120.000 -1.263 120.000 -120.000 -1.355 150.000 -120.000 -1.129 180.000 -120.000 -2.196 210.000 -120.000 -2.882 240.000 -120.000 -2.318 270.000 -120.000 -1.897 300.000 -120.000 -2.005 330.000 -120.000 -2.616 360.000 -120.000 -2.826 390.000 -120.000 -2.634 420.000 -120.000 -2.512 450.000 -120.000 -2.337 480.000 -120.000 -2.249 -450.000 -90.000 0.568 -420.000 -90.000 0.792 -390.000 -90.000 0.736 -360.000 -90.000 0.773 -330.000 -90.000 1.125 -300.000 -90.000 2.147 -270.000 -90.000 2.604 -240.000 -90.000 2.847 -210.000 -90.000 3.131 -180.000 -90.000 2.972 -150.000 -90.000 2.903 -120.000 -90.000 2.266 -90.000 -90.000 0.987 -60.000 -90.000 0.306 -30.000 -90.000 -0.251 0.000 -90.000 -0.580 30.000 -90.000 -0.947 60.000 -90.000 -1.156 90.000 -90.000 -1.452 120.000 -90.000 -1.845 150.000 -90.000 -2.138 180.000 -90.000 -2.316 210.000 -90.000 -2.438 240.000 -90.000 -2.086 270.000 -90.000 -1.594 300.000 -90.000 -1.792 330.000 -90.000 -2.585 360.000 -90.000 -2.951 390.000 -90.000 -2.792 420.000 -90.000 -2.477 450.000 -90.000 -2.306 480.000 -90.000 -2.192 -450.000 -60.000 0.663 -420.000 -60.000 0.674 -390.000 -60.000 0.300 -360.000 -60.000 -0.501 -330.000 -60.000 0.154 -300.000 -60.000 1.302 -270.000 -60.000 1.388 -240.000 -60.000 2.149 -210.000 -60.000 2.177 -180.000 -60.000 2.272 -150.000 -60.000 2.131 -120.000 -60.000 1.798 -90.000 -60.000 0.604 -60.000 -60.000 0.148 -30.000 -60.000 -0.076 0.000 -60.000 -0.044 30.000 -60.000 -0.706 60.000 -60.000 -0.973 90.000 -60.000 -1.378 120.000 -60.000 -2.794 150.000 -60.000 -3.377 180.000 -60.000 -2.608 210.000 -60.000 -2.763 240.000 -60.000 -1.897 270.000 -60.000 0.210 300.000 -60.000 -0.636 330.000 -60.000 -3.366 360.000 -60.000 -4.246 390.000 -60.000 -2.998 420.000 -60.000 -2.506 450.000 -60.000 -2.085 480.000 -60.000 -1.906 -450.000 -30.000 0.844 -420.000 -30.000 0.657 -390.000 -30.000 0.308 -360.000 -30.000 -0.255 -330.000 -30.000 0.229 -300.000 -30.000 1.173 -270.000 -30.000 1.462 -240.000 -30.000 1.987 -210.000 -30.000 2.098 -180.000 -30.000 2.039 -150.000 -30.000 1.798 -120.000 -30.000 1.385 -90.000 -30.000 0.435 -60.000 -30.000 0.021 -30.000 -30.000 -0.360 0.000 -30.000 -0.410 30.000 -30.000 -0.845 60.000 -30.000 -1.017 90.000 -30.000 -1.462 120.000 -30.000 -2.517 150.000 -30.000 -2.948 180.000 -30.000 -2.548 210.000 -30.000 -2.601 240.000 -30.000 -1.944 270.000 -30.000 -0.460 300.000 -30.000 -0.912 330.000 -30.000 -2.785 360.000 -30.000 -3.481 390.000 -30.000 -2.677 420.000 -30.000 -2.260 450.000 -30.000 -2.085 480.000 -30.000 -1.740 -450.000 0.000 0.906 -420.000 0.000 0.808 -390.000 0.000 0.703 -360.000 0.000 0.590 -330.000 0.000 0.861 -300.000 0.000 1.311 -270.000 0.000 1.734 -240.000 0.000 1.891 -210.000 0.000 2.002 -180.000 0.000 1.770 -150.000 0.000 1.271 -120.000 0.000 0.974 -90.000 0.000 -0.001 -60.000 0.000 -0.534 -30.000 0.000 -1.018 0.000 0.000 -1.911 30.000 0.000 -1.372 60.000 0.000 -1.031 90.000 0.000 -1.274 120.000 0.000 -1.870 150.000 0.000 -2.075 180.000 0.000 -2.493 210.000 0.000 -3.090 240.000 0.000 -2.304 270.000 0.000 -1.250 300.000 0.000 -1.306 330.000 0.000 -1.535 360.000 0.000 -1.558 390.000 0.000 -1.960 420.000 0.000 -2.471 450.000 0.000 -2.113 480.000 0.000 -1.701 -450.000 30.000 0.960 -420.000 30.000 0.907 -390.000 30.000 1.019 -360.000 30.000 1.042 -330.000 30.000 1.217 -300.000 30.000 1.476 -270.000 30.000 1.688 -240.000 30.000 1.910 -210.000 30.000 2.068 -180.000 30.000 1.672 -150.000 30.000 1.150 -120.000 30.000 0.896 -90.000 30.000 -0.282 -60.000 30.000 -0.755 -30.000 30.000 -1.250 0.000 30.000 -2.501 30.000 30.000 -1.422 60.000 30.000 -0.931 90.000 30.000 -1.057 120.000 30.000 -1.569 150.000 30.000 -1.817 180.000 30.000 -2.348 210.000 30.000 -3.515 240.000 30.000 -2.201 270.000 30.000 -1.145 300.000 30.000 -1.238 330.000 30.000 -1.126 360.000 30.000 -1.017 390.000 30.000 -1.678 420.000 30.000 -2.656 450.000 30.000 -1.920 480.000 30.000 -1.305 -450.000 60.000 1.054 -420.000 60.000 1.233 -390.000 60.000 1.229 -360.000 60.000 1.286 -330.000 60.000 1.410 -300.000 60.000 1.564 -270.000 60.000 1.677 -240.000 60.000 1.793 -210.000 60.000 1.811 -180.000 60.000 1.438 -150.000 60.000 1.018 -120.000 60.000 0.636 -90.000 60.000 -0.057 -60.000 60.000 -0.389 -30.000 60.000 -0.471 0.000 60.000 -0.431 30.000 60.000 -0.620 60.000 60.000 -0.758 90.000 60.000 -0.818 120.000 60.000 -0.623 150.000 60.000 -0.695 180.000 60.000 -1.513 210.000 60.000 -1.950 240.000 60.000 -1.827 270.000 60.000 -1.705 300.000 60.000 -1.583 330.000 60.000 -0.995 360.000 60.000 -0.646 390.000 60.000 -0.879 420.000 60.000 -1.110 450.000 60.000 -1.005 480.000 60.000 -0.786 -450.000 90.000 1.135 -420.000 90.000 1.347 -390.000 90.000 1.370 -360.000 90.000 1.227 -330.000 90.000 1.430 -300.000 90.000 1.560 -270.000 90.000 1.638 -240.000 90.000 1.682 -210.000 90.000 1.252 -180.000 90.000 1.252 -150.000 90.000 0.780 -120.000 90.000 0.425 -90.000 90.000 0.029 -60.000 90.000 -0.139 -30.000 90.000 0.224 0.000 90.000 1.118 30.000 90.000 -0.018 60.000 90.000 -0.752 90.000 90.000 -0.599 120.000 90.000 0.384 150.000 90.000 0.785 180.000 90.000 -0.885 210.000 90.000 -1.882 240.000 90.000 -1.607 270.000 90.000 -2.567 300.000 90.000 -1.945 330.000 90.000 -0.350 360.000 90.000 0.007 390.000 90.000 -0.354 420.000 90.000 -0.882 450.000 90.000 -0.432 480.000 90.000 -0.161 -450.000 120.000 1.422 -420.000 120.000 1.212 -390.000 120.000 1.240 -360.000 120.000 1.285 -330.000 120.000 1.473 -300.000 120.000 1.563 -270.000 120.000 1.477 -240.000 120.000 1.393 -210.000 120.000 0.918 -180.000 120.000 0.805 -150.000 120.000 0.615 -120.000 120.000 0.357 -90.000 120.000 0.055 -60.000 120.000 0.028 -30.000 120.000 0.138 0.000 120.000 0.250 30.000 120.000 0.049 60.000 120.000 -0.127 90.000 120.000 0.062 120.000 120.000 0.490 150.000 120.000 0.262 180.000 120.000 -0.336 210.000 120.000 -0.828 240.000 120.000 -0.988 270.000 120.000 -1.449 300.000 120.000 -0.931 330.000 120.000 -0.077 360.000 120.000 0.310 390.000 120.000 0.557 420.000 120.000 0.630 450.000 120.000 0.667 480.000 120.000 0.560 -450.000 150.000 1.239 -420.000 150.000 1.255 -390.000 150.000 1.280 -360.000 150.000 1.454 -330.000 150.000 1.303 -300.000 150.000 1.321 -270.000 150.000 1.375 -240.000 150.000 1.154 -210.000 150.000 0.771 -180.000 150.000 0.609 -150.000 150.000 0.407 -120.000 150.000 0.108 -90.000 150.000 0.162 -60.000 150.000 -0.029 -30.000 150.000 -0.245 0.000 150.000 -0.705 30.000 150.000 -0.017 60.000 150.000 0.206 90.000 150.000 0.400 120.000 150.000 0.793 150.000 150.000 0.889 180.000 150.000 0.306 210.000 150.000 0.840 240.000 150.000 -0.202 270.000 150.000 -0.801 300.000 150.000 -0.511 330.000 150.000 0.623 360.000 150.000 1.022 390.000 150.000 1.795 420.000 150.000 3.637 450.000 150.000 2.325 480.000 150.000 1.413 -450.000 180.000 1.268 -420.000 180.000 1.283 -390.000 180.000 1.304 -360.000 180.000 1.323 -330.000 180.000 1.331 -300.000 180.000 1.164 -270.000 180.000 0.988 -240.000 180.000 0.751 -210.000 180.000 0.531 -180.000 180.000 0.474 -150.000 180.000 0.428 -120.000 180.000 0.259 -90.000 180.000 0.215 -60.000 180.000 0.143 -30.000 180.000 -0.037 0.000 180.000 -0.277 30.000 180.000 0.391 60.000 180.000 0.715 90.000 180.000 0.866 120.000 180.000 0.935 150.000 180.000 0.890 180.000 180.000 0.631 210.000 180.000 0.520 240.000 180.000 -0.107 270.000 180.000 -0.582 300.000 180.000 -0.268 330.000 180.000 0.760 360.000 180.000 1.151 390.000 180.000 1.962 420.000 180.000 3.092 450.000 180.000 2.460 480.000 180.000 1.734 -450.000 210.000 1.288 -420.000 210.000 1.301 -390.000 210.000 1.311 -360.000 210.000 1.311 -330.000 210.000 0.947 -300.000 210.000 0.928 -270.000 210.000 0.736 -240.000 210.000 0.703 -210.000 210.000 0.985 -180.000 210.000 0.568 -150.000 210.000 0.410 -120.000 210.000 0.375 -90.000 210.000 0.248 -60.000 210.000 0.305 -30.000 210.000 0.619 0.000 210.000 0.921 30.000 210.000 1.376 60.000 210.000 2.995 90.000 210.000 2.414 120.000 210.000 1.026 150.000 210.000 0.522 180.000 210.000 0.263 210.000 210.000 -0.451 240.000 210.000 -0.414 270.000 210.000 -0.577 300.000 210.000 -0.161 330.000 210.000 1.047 360.000 210.000 1.596 390.000 210.000 1.910 420.000 210.000 2.597 450.000 210.000 2.257 480.000 210.000 1.671 -450.000 240.000 1.301 -420.000 240.000 1.243 -390.000 240.000 0.922 -360.000 240.000 0.908 -330.000 240.000 0.699 -300.000 240.000 0.688 -270.000 240.000 0.664 -240.000 240.000 0.622 -210.000 240.000 0.751 -180.000 240.000 0.586 -150.000 240.000 0.538 -120.000 240.000 0.398 -90.000 240.000 0.319 -60.000 240.000 0.410 -30.000 240.000 0.703 0.000 240.000 1.057 30.000 240.000 1.528 60.000 240.000 3.960 90.000 240.000 3.046 120.000 240.000 1.002 150.000 240.000 0.420 180.000 240.000 0.250 210.000 240.000 -0.639 240.000 240.000 -0.268 270.000 240.000 -0.634 300.000 240.000 -0.237 330.000 240.000 1.268 360.000 240.000 1.801 390.000 240.000 1.810 420.000 240.000 2.824 450.000 240.000 2.003 480.000 240.000 1.438 -450.000 270.000 1.231 -420.000 270.000 1.029 -390.000 270.000 0.813 -360.000 270.000 0.667 -330.000 270.000 0.589 -300.000 270.000 0.504 -270.000 270.000 0.476 -240.000 270.000 0.752 -210.000 270.000 0.592 -180.000 270.000 0.548 -150.000 270.000 0.545 -120.000 270.000 0.355 -90.000 270.000 0.400 -60.000 270.000 0.273 -30.000 270.000 0.036 0.000 270.000 -0.075 30.000 270.000 0.713 60.000 270.000 1.382 90.000 270.000 1.595 120.000 270.000 1.703 150.000 270.000 1.706 180.000 270.000 1.074 210.000 270.000 0.574 240.000 270.000 0.117 270.000 270.000 -0.463 300.000 270.000 -0.256 330.000 270.000 0.644 360.000 270.000 1.028 390.000 270.000 0.917 420.000 270.000 0.690 450.000 270.000 0.839 480.000 270.000 0.882 -450.000 300.000 1.016 -420.000 300.000 0.864 -390.000 300.000 0.508 -360.000 300.000 0.563 -330.000 300.000 0.482 -300.000 300.000 0.460 -270.000 300.000 0.431 -240.000 300.000 0.788 -210.000 300.000 0.740 -180.000 300.000 0.681 -150.000 300.000 0.469 -120.000 300.000 0.405 -90.000 300.000 0.291 -60.000 300.000 0.052 -30.000 300.000 -0.639 0.000 300.000 -1.882 30.000 300.000 -0.112 60.000 300.000 0.282 90.000 300.000 0.833 120.000 300.000 2.388 150.000 300.000 2.850 180.000 300.000 1.573 210.000 300.000 1.118 240.000 300.000 0.519 270.000 300.000 -1.460 300.000 300.000 -0.803 330.000 300.000 0.710 360.000 300.000 1.014 390.000 300.000 0.226 420.000 300.000 -0.882 450.000 300.000 -0.063 480.000 300.000 0.435 -450.000 330.000 0.848 -420.000 330.000 0.700 -390.000 330.000 0.557 -360.000 330.000 0.548 -330.000 330.000 0.600 -300.000 330.000 0.447 -270.000 330.000 0.744 -240.000 330.000 0.708 -210.000 330.000 0.665 -180.000 330.000 0.520 -150.000 330.000 0.481 -120.000 330.000 0.425 -90.000 330.000 0.407 -60.000 330.000 0.360 -30.000 330.000 0.052 0.000 330.000 -0.208 30.000 330.000 0.273 60.000 330.000 0.578 90.000 330.000 1.122 120.000 330.000 2.156 150.000 330.000 2.439 180.000 330.000 1.880 210.000 330.000 1.544 240.000 330.000 1.043 270.000 330.000 0.283 300.000 330.000 0.199 330.000 330.000 0.507 360.000 330.000 0.544 390.000 330.000 0.138 420.000 330.000 -0.272 450.000 330.000 -0.135 480.000 330.000 0.178 -450.000 360.000 0.698 -420.000 360.000 0.691 -390.000 360.000 0.615 -360.000 360.000 0.468 -330.000 360.000 0.391 -300.000 360.000 0.760 -270.000 360.000 0.733 -240.000 360.000 0.702 -210.000 360.000 0.668 -180.000 360.000 0.547 -150.000 360.000 0.688 -120.000 360.000 0.638 -90.000 360.000 0.583 -60.000 360.000 0.551 -30.000 360.000 0.742 0.000 360.000 1.013 30.000 360.000 0.685 60.000 360.000 0.339 90.000 360.000 0.855 120.000 360.000 2.777 150.000 360.000 3.469 180.000 360.000 2.463 210.000 360.000 2.873 240.000 360.000 1.920 270.000 360.000 1.814 300.000 360.000 1.350 330.000 360.000 0.396 360.000 360.000 0.178 390.000 360.000 -0.099 420.000 360.000 -0.750 450.000 360.000 -0.332 480.000 360.000 0.096 -450.000 390.000 0.691 -420.000 390.000 0.617 -390.000 390.000 0.472 -360.000 390.000 0.399 -330.000 390.000 0.522 -300.000 390.000 0.505 -270.000 390.000 0.734 -240.000 390.000 0.714 -210.000 390.000 0.697 -180.000 390.000 0.676 -150.000 390.000 0.650 -120.000 390.000 0.703 -90.000 390.000 0.701 -60.000 390.000 0.680 -30.000 390.000 0.745 0.000 390.000 0.860 30.000 390.000 0.608 60.000 390.000 0.413 90.000 390.000 0.787 120.000 390.000 2.190 150.000 390.000 2.842 180.000 390.000 2.273 210.000 390.000 2.575 240.000 390.000 1.997 270.000 390.000 1.772 300.000 390.000 1.376 330.000 390.000 0.539 360.000 390.000 0.203 390.000 390.000 -0.081 420.000 390.000 -0.569 450.000 390.000 -0.297 480.000 390.000 0.075 -450.000 420.000 0.477 -420.000 420.000 0.476 -390.000 420.000 0.476 -360.000 420.000 0.538 -330.000 420.000 0.594 -300.000 420.000 0.584 -270.000 420.000 0.755 -240.000 420.000 0.747 -210.000 420.000 0.737 -180.000 420.000 0.726 -150.000 420.000 0.752 -120.000 420.000 0.692 -90.000 420.000 0.674 -60.000 420.000 0.635 -30.000 420.000 0.486 0.000 420.000 0.340 30.000 420.000 0.467 60.000 420.000 0.373 90.000 420.000 0.621 120.000 420.000 0.834 150.000 420.000 0.853 180.000 420.000 1.432 210.000 420.000 1.741 240.000 420.000 1.679 270.000 420.000 1.429 300.000 420.000 1.017 330.000 420.000 0.668 360.000 420.000 0.352 390.000 420.000 0.104 420.000 420.000 -0.032 450.000 420.000 0.013 480.000 420.000 0.189 -450.000 450.000 0.623 -420.000 450.000 0.555 -390.000 450.000 0.623 -360.000 450.000 0.618 -330.000 450.000 0.614 -300.000 450.000 0.787 -270.000 450.000 0.784 -240.000 450.000 0.521 -210.000 450.000 0.535 -180.000 450.000 0.550 -150.000 450.000 0.570 -120.000 450.000 0.594 -90.000 450.000 0.618 -60.000 450.000 0.693 -30.000 450.000 0.527 0.000 450.000 0.221 30.000 450.000 0.486 60.000 450.000 0.292 90.000 450.000 0.438 120.000 450.000 0.429 150.000 450.000 0.318 180.000 450.000 0.932 210.000 450.000 1.112 240.000 450.000 1.358 270.000 450.000 1.258 300.000 450.000 0.929 330.000 450.000 0.715 360.000 450.000 0.458 390.000 450.000 0.287 420.000 450.000 0.169 450.000 450.000 0.259 480.000 450.000 0.332 -450.000 480.000 0.636 -420.000 480.000 0.639 -390.000 480.000 0.637 -360.000 480.000 0.636 -330.000 480.000 0.464 -300.000 480.000 0.477 -270.000 480.000 0.546 -240.000 480.000 0.561 -210.000 480.000 0.580 -180.000 480.000 0.607 -150.000 480.000 0.642 -120.000 480.000 0.691 -90.000 480.000 0.761 -60.000 480.000 0.862 -30.000 480.000 1.086 0.000 480.000 1.192 30.000 480.000 0.961 60.000 480.000 0.813 90.000 480.000 0.696 120.000 480.000 0.303 150.000 480.000 0.142 180.000 480.000 0.554 210.000 480.000 0.906 240.000 480.000 1.047 270.000 480.000 1.007 300.000 480.000 0.837 330.000 480.000 0.686 360.000 480.000 0.522 390.000 480.000 0.401 420.000 480.000 0.325 450.000 480.000 0.257 480.000 480.000 0.454 -450.000 510.000 0.650 -420.000 510.000 0.650 -390.000 510.000 0.651 -360.000 510.000 0.475 -330.000 510.000 0.546 -300.000 510.000 0.558 -270.000 510.000 0.574 -240.000 510.000 0.594 -210.000 510.000 0.621 -180.000 510.000 0.657 -150.000 510.000 0.707 -120.000 510.000 0.779 -90.000 510.000 0.890 -60.000 510.000 1.182 -30.000 510.000 1.571 0.000 510.000 2.118 30.000 510.000 1.382 60.000 510.000 1.104 90.000 510.000 0.922 120.000 510.000 -0.160 150.000 510.000 -0.661 180.000 510.000 0.269 210.000 510.000 0.724 240.000 510.000 0.897 270.000 510.000 0.886 300.000 510.000 0.864 330.000 510.000 0.681 360.000 510.000 0.571 390.000 510.000 0.425 420.000 510.000 0.414 450.000 510.000 0.386 480.000 510.000 0.341 -450.000 540.000 0.660 -420.000 540.000 0.661 -390.000 540.000 0.604 -360.000 540.000 0.613 -330.000 540.000 0.625 -300.000 540.000 0.639 -270.000 540.000 0.657 -240.000 540.000 0.680 -210.000 540.000 0.657 -180.000 540.000 0.700 -150.000 540.000 0.757 -120.000 540.000 0.837 -90.000 540.000 1.077 -60.000 540.000 1.233 -30.000 540.000 1.474 0.000 540.000 1.626 30.000 540.000 1.390 60.000 540.000 1.279 90.000 540.000 1.072 120.000 540.000 0.525 150.000 540.000 0.279 180.000 540.000 0.533 210.000 540.000 0.781 240.000 540.000 0.925 270.000 540.000 0.838 300.000 540.000 0.885 330.000 540.000 0.674 360.000 540.000 0.599 390.000 540.000 0.522 420.000 540.000 0.472 450.000 540.000 0.449 480.000 540.000 0.442 -450.000 570.000 0.602 -420.000 570.000 0.609 -390.000 570.000 0.618 -360.000 570.000 0.629 -330.000 570.000 0.643 -300.000 570.000 0.659 -270.000 570.000 0.622 -240.000 570.000 0.650 -210.000 570.000 0.685 -180.000 570.000 0.730 -150.000 570.000 0.787 -120.000 570.000 1.010 -90.000 570.000 1.091 -60.000 570.000 1.197 -30.000 570.000 1.313 0.000 570.000 1.390 30.000 570.000 1.551 60.000 570.000 1.924 90.000 570.000 1.647 120.000 570.000 1.081 150.000 570.000 1.050 180.000 570.000 0.890 210.000 570.000 0.903 240.000 570.000 0.984 270.000 570.000 0.834 300.000 570.000 0.828 330.000 570.000 0.851 360.000 570.000 0.512 390.000 570.000 0.615 420.000 570.000 0.460 450.000 570.000 0.492 480.000 570.000 0.484 -450.000 600.000 0.612 -420.000 600.000 0.621 -390.000 600.000 0.631 -360.000 600.000 0.643 -330.000 600.000 0.658 -300.000 600.000 0.617 -270.000 600.000 0.641 -240.000 600.000 0.669 -210.000 600.000 0.705 -180.000 600.000 0.748 -150.000 600.000 0.967 -120.000 600.000 1.019 -90.000 600.000 1.083 -60.000 600.000 1.159 -30.000 600.000 1.239 0.000 600.000 1.334 30.000 600.000 1.573 60.000 600.000 1.841 90.000 600.000 1.642 120.000 600.000 1.181 150.000 600.000 1.091 180.000 600.000 1.019 210.000 600.000 0.999 240.000 600.000 1.028 270.000 600.000 1.017 300.000 600.000 0.837 330.000 600.000 0.866 360.000 600.000 0.538 390.000 600.000 0.490 420.000 600.000 0.444 450.000 600.000 0.522 480.000 600.000 0.514 -450.000 630.000 0.621 -420.000 630.000 0.631 -390.000 630.000 0.642 -360.000 630.000 0.654 -330.000 630.000 0.610 -300.000 630.000 0.630 -270.000 630.000 0.654 -240.000 630.000 0.683 -210.000 630.000 0.717 -180.000 630.000 0.937 -150.000 630.000 0.974 -120.000 630.000 1.017 -90.000 630.000 1.069 -60.000 630.000 1.127 -30.000 630.000 1.191 0.000 630.000 1.270 30.000 630.000 1.452 60.000 630.000 1.511 90.000 630.000 1.409 120.000 630.000 1.217 150.000 630.000 1.123 180.000 630.000 1.074 210.000 630.000 1.059 240.000 630.000 1.070 270.000 630.000 1.040 300.000 630.000 1.041 330.000 630.000 0.986 360.000 630.000 0.562 390.000 630.000 0.519 420.000 630.000 0.478 450.000 630.000 0.443 480.000 630.000 0.539</float_array><technique_common><accessor source="#terrain-p-array" count="1184" stride="3"><param name="X" type="float"/><param name="Y" type="float"/><param name="Z" type="float"/></accessor></technique_common></source><vertices id="terrain-v"><input semantic="POSITION" source="#terrain-p-p"/></vertices><triangles material="terrain" count="1135"><input semantic="VERTEX" source="#terrain-v" offset="0"/><p>52 85 84 53 86 85 54 55 87 54 87 86 55 56 88 55 88 87 56 57 89 56 89 88 57 58 90 57 90 89 58 59 91 58 91 90 59 60 92 59 92 91 72 105 104 73 106 105 74 107 106 75 76 108 75 108 107 84 85 117 84 117 116 85 86 118 85 118 117 86 87 119 86 119 118 87 88 120 87 120 119 88 89 121 88 121 120 89 90 122 89 122 121 90 91 123 90 123 122 91 92 124 91 124 123 97 130 129 98 99 131 98 131 130 99 100 132 99 132 131 100 101 133 100 133 132 101 102 134 101 134 133 102 103 135 102 135 134 103 104 136 103 136 135 104 105 137 104 137 136 105 106 138 105 138 137 106 107 139 106 139 138 107 108 140 107 140 139 116 117 149 116 149 148 117 118 150 117 150 149 118 119 151 118 151 150 119 120 152 119 152 151 120 121 153 120 153 152 121 122 154 121 154 153 122 123 155 122 155 154 123 124 156 123 156 155 124 157 156 129 130 162 129 162 161 130 131 163 130 163 162 131 132 164 131 164 163 132 133 165 132 165 164 133 134 166 133 166 165 134 135 167 134 167 166 135 136 168 135 168 167 136 137 169 136 169 168 137 138 170 137 170 169 138 139 171 138 171 170 139 140 172 139 172 171 148 149 181 148 181 180 149 150 182 149 182 181 150 151 183 150 183 182 151 152 184 151 184 183 152 153 185 152 185 184 153 154 186 153 186 185 154 155 187 154 187 186 155 156 188 155 188 187 156 189 188 161 162 194 161 194 193 162 163 195 162 195 194 163 164 196 163 196 195 164 165 197 164 197 196 165 166 198 165 198 197 166 167 199 166 199 198 167 168 200 167 200 199 168 169 201 168 201 200 169 170 202 169 202 201 170 171 203 170 203 202 171 172 204 171 204 203 180 181 213 180 213 212 181 182 214 181 214 213 182 183 215 182 215 214 183 184 216 183 216 215 184 185 217 184 217 216 185 186 218 185 218 217 186 187 219 186 219 218 187 188 220 187 220 219 188 221 220 193 194 226 193 226 225 194 195 227 194 227 226 195 196 228 195 228 227 196 197 229 196 229 228 197 198 230 197 230 229 198 199 231 198 231 230 199 200 232 199 232 231 200 201 233 200 233 232 201 202 234 201 234 233 202 203 235 202 235 234 203 204 236 203 236 235 212 213 245 212 245 244 213 214 246 213 246 245 214 215 247 214 247 246 215 216 248 215 248 247 216 217 249 216 249 248 217 218 250 217 250 249 218 219 251 218 251 250 219 220 252 219 252 251 220 253 252 225 226 258 225 258 257 226 227 259 226 259 258 227 228 260 227 260 259 228 229 261 228 261 260 229 230 262 229 262 261 230 231 263 230 263 262 231 232 264 231 264 263 232 233 265 232 265 264 233 234 266 233 266 265 234 235 267 234 267 266 235 236 268 235 268 267 240 241 273 240 273 272 241 242 274 241 274 273 242 243 275 242 275 274 243 244 276 243 276 275 244 245 277 244 277 276 245 246 278 245 278 277 246 247 279 246 279 278 247 248 280 247 280 279 248 249 281 248 281 280 249 250 282 249 282 281 250 251 283 250 283 282 251 252 284 251 284 283 252 285 284 257 258 290 257 290 289 258 259 291 258 291 290 259 260 292 259 292 291 260 261 293 260 293 292 261 262 294 261 294 293 262 263 295 262 295 294 263 264 296 263 296 295 264 265 297 264 297 296 265 266 298 265 298 297 266 267 299 266 299 298 267 268 300 267 300 299 272 273 305 272 305 304 273 274 306 273 306 305 274 275 307 274 307 306 275 276 308 275 308 307 276 277 309 276 309 308 277 278 310 277 310 309 278 279 311 278 311 310 279 280 312 279 312 311 280 281 313 280 313 312 281 282 314 281 314 313 282 283 315 282 315 314 283 284 316 283 316 315 284 317 316 289 290 322 289 322 321 290 291 323 290 323 322 291 292 324 291 324 323 292 293 325 292 325 324 293 294 326 293 326 325 294 295 327 294 327 326 295 296 328 295 328 327 296 297 329 296 329 328 297 298 330 297 330 329 298 299 331 298 331 330 299 300 332 299 332 331 300 301 333 300 333 332 301 302 334 301 334 333 302 303 335 302 335 334 303 304 336 303 336 335 304 305 337 304 337 336 305 306 338 305 338 337 306 307 339 306 339 338 307 308 340 307 340 339 308 309 341 308 341 340 309 310 342 309 342 341 310 311 343 310 343 342 311 312 344 311 344 343 312 313 345 312 345 344 313 314 346 313 346 345 314 315 347 314 347 346 315 316 348 315 348 347 316 317 349 316 349 348 321 322 354 322 323 355 322 355 354 323 324 356 323 356 355 324 325 357 324 357 356 325 326 358 325 358 357 326 327 359 326 359 358 327 328 360 327 360 359 328 329 361 328 361 360 329 330 362 329 362 361 330 331 363 330 363 362 331 332 364 331 364 363 332 333 365 332 365 364 333 334 366 333 366 365 334 335 367 334 367 366 335 336 368 335 368 367 336 337 369 336 369 368 337 338 370 337 370 369 338 339 371 338 371 370 339 340 372 339 372 371 340 341 373 340 373 372 341 342 374 341 374 373 342 343 375 342 375 374 343 344 376 343 376 375 344 345 377 344 377 376 345 346 378 345 378 377 346 347 379 346 379 378 347 348 380 347 380 379 348 349 381 348 381 380 353 354 386 354 355 387 354 387 386 355 356 388 355 388 387 356 357 389 356 389 388 357 358 390 357 390 389 358 359 391 358 391 390 359 360 392 359 392 391 360 361 393 360 393 392 361 362 394 361 394 393 362 363 395 362 395 394 363 364 396 363 396 395 364 365 397 364 397 396 365 366 398 365 398 397 366 367 399 366 399 398 367 368 400 367 400 399 368 369 401 368 401 400 369 370 402 369 402 401 370 371 403 370 403 402 371 372 404 371 404 403 372 373 405 372 405 404 373 374 406 373 406 405 374 375 407 374 407 406 375 376 408 375 408 407 376 377 409 376 409 408 377 378 410 377 410 409 378 379 411 378 411 410 379 380 412 379 412 411 380 381 413 380 413 412 385 386 418 386 387 419 386 419 418 387 388 420 387 420 419 388 389 421 388 421 420 389 390 422 389 422 421 390 391 423 390 423 422 391 392 424 391 424 423 392 393 425 392 425 424 393 394 426 393 426 425 394 395 427 394 427 426 395 396 428 395 428 427 396 397 429 396 429 428 397 398 430 397 430 429 398 399 431 398 431 430 399 400 432 399 432 431 400 401 433 400 433 432 401 402 434 401 434 433 402 403 435 402 435 434 403 404 436 403 436 435 404 405 437 404 437 436 405 406 438 405 438 437 406 407 439 406 439 438 407 408 440 407 440 439 408 409 441 408 441 440 409 410 442 409 442 441 410 411 443 410 443 442 411 412 444 411 444 443 412 413 445 412 445 444 417 418 450 418 419 451 418 451 450 419 420 452 419 452 451 420 421 453 420 453 452 421 422 454 421 454 453 422 423 455 422 455 454 423 424 456 423 456 455 424 425 457 424 457 456 425 426 458 425 458 457 426 427 459 426 459 458 427 428 460 427 460 459 428 429 461 428 461 460 429 430 462 429 462 461 430 431 463 430 463 462 431 432 464 431 464 463 432 433 465 432 465 464 433 434 466 433 466 465 434 435 467 434 467 466 435 436 468 435 468 467 436 437 469 436 469 468 437 438 470 437 470 469 438 439 471 438 471 470 439 440 472 439 472 471 440 441 473 440 473 472 441 442 474 441 474 473 442 443 475 442 475 474 443 444 476 443 476 475 444 445 477 444 477 476 449 450 482 450 451 483 450 483 482 451 452 484 451 484 483 452 453 485 452 485 484 453 454 486 453 486 485 454 455 487 454 487 486 455 456 488 455 488 487 456 457 489 456 489 488 457 458 490 457 490 489 458 459 491 458 491 490 459 460 492 459 492 491 460 461 493 460 493 492 461 462 494 461 494 493 462 463 495 462 495 494 463 464 496 463 496 495 464 465 497 464 497 496 465 466 498 465 498 497 466 467 499 466 499 498 467 468 500 467 500 499 468 469 501 468 501 500 469 470 502 469 502 501 470 471 503 470 503 502 471 472 504 471 504 503 472 473 505 472 505 504 473 474 506 473 506 505 474 475 507 474 507 506 475 476 508 475 508 507 476 477 509 476 509 508 486 487 519 487 488 520 487 520 519 488 489 521 489 490 522 490 491 523 490 523 522 491 492 524 491 524 523 492 493 525 492 525 524 493 494 526 493 526 525 494 495 527 494 527 526 495 496 528 495 528 527 496 497 529 496 529 528 497 498 530 497 530 529 498 499 531 498 531 530 499 500 532 499 532 531 500 501 533 500 533 532 501 502 534 501 534 533 502 503 535 502 535 534 503 504 536 503 536 535 504 505 537 504 537 536 505 506 538 505 538 537 506 507 539 506 539 538 507 508 540 507 540 539 508 509 541 508 541 540 518 519 551 519 520 552 519 552 551 525 526 558 525 558 557 526 527 559 526 559 558 527 528 560 527 560 559 528 529 561 528 561 560 529 530 562 529 562 561 530 531 563 530 563 562 531 532 564 531 564 563 532 533 565 532 565 564 533 534 566 533 566 565 534 535 567 534 567 566 535 536 568 535 568 567 536 537 569 536 569 568 537 538 570 537 570 569 538 539 571 538 571 570 539 540 572 539 572 571 540 541 573 540 573 572 550 551 583 551 552 584 557 558 590 557 590 589 558 559 591 558 591 590 559 560 592 559 592 591 560 561 593 560 593 592 561 562 594 561 594 593 562 563 595 562 595 594 563 564 596 563 596 595 564 565 597 564 597 596 565 566 598 565 598 597 566 567 599 566 599 598 567 568 600 567 600 599 568 569 601 568 601 600 569 570 602 569 602 601 570 571 603 570 603 602 571 572 604 571 604 603 572 573 605 572 605 604 589 590 622 590 591 623 590 623 622 591 592 624 591 624 623 592 593 625 592 625 624 593 594 626 593 626 625 594 595 627 594 627 626 595 596 628 595 628 627 596 597 629 596 629 628 597 598 630 597 630 629 598 599 631 598 631 630 599 600 632 599 632 631 600 601 633 600 633 632 601 602 634 601 634 633 602 603 635 602 635 634 603 604 636 603 636 635 604 605 637 604 637 636 621 622 654 622 623 655 622 655 654 623 624 656 623 656 655 624 625 657 624 657 656 625 626 658 625 658 657 626 627 659 626 659 658 627 628 660 627 660 659 628 629 661 628 661 660 629 630 662 629 662 661 630 631 663 630 663 662 631 632 664 631 664 663 632 633 665 632 665 664 633 634 666 633 666 665 634 635 667 634 667 666 635 636 668 635 668 667 636 637 669 636 669 668 653 654 686 654 655 687 654 687 686 655 656 688 655 688 687 656 657 689 656 689 688 657 658 690 657 690 689 658 659 691 658 691 690 659 660 692 659 692 691 660 661 693 660 693 692 661 662 694 661 694 693 662 663 695 662 695 694 663 664 696 663 696 695 664 665 697 664 697 696 665 666 698 665 698 697 666 667 699 666 699 698 667 668 700 667 700 699 668 669 701 668 701 700 669 702 701 685 686 718 686 687 719 686 719 718 687 688 720 687 720 719 688 689 721 688 721 720 689 690 722 689 722 721 690 691 723 690 723 722 691 692 724 691 724 723 692 693 725 692 725 724 693 694 726 693 726 725 694 695 727 694 727 726 695 696 728 695 728 727 696 697 729 696 729 728 697 698 730 697 730 729 698 699 731 698 731 730 699 700 732 699 732 731 700 701 733 700 733 732 701 734 733 717 718 750 718 719 751 718 751 750 719 720 752 719 752 751 720 721 753 720 753 752 721 722 754 721 754 753 722 723 755 722 755 754 723 724 756 723 756 755 724 725 757 724 757 756 725 726 758 725 758 757 726 727 759 726 759 758 727 728 760 727 760 759 728 729 761 728 761 760 729 730 762 729 762 761 730 731 763 730 763 762 731 732 764 731 764 763 732 733 765 732 765 764 733 766 765 750 751 783 750 783 782 751 752 784 751 784 783 752 753 785 752 785 784 753 754 786 753 786 785 754 755 787 754 787 786 755 756 788 755 788 787 756 757 789 756 789 788 757 758 790 757 790 789 758 759 791 758 791 790 759 760 792 759 792 791 760 761 793 760 793 792 761 762 794 761 794 793 762 763 795 762 795 794 763 764 796 763 796 795 764 765 797 764 797 796 765 798 797 782 783 815 782 815 814 783 784 816 783 816 815 784 785 817 784 817 816 785 786 818 785 818 817 786 787 819 786 819 818 787 788 820 787 820 819 788 789 821 788 821 820 789 790 822 789 822 821 790 791 823 790 823 822 791 792 824 791 824 823 792 793 825 792 825 824 793 794 826 793 826 825 794 795 827 794 827 826 795 796 828 795 828 827 796 797 829 796 829 828 797 830 829 814 815 847 814 847 846 815 816 848 815 848 847 816 817 849 816 849 848 817 818 850 817 850 849 818 819 851 818 851 850 819 820 852 819 852 851 820 821 853 820 853 852 821 822 854 821 854 853 822 823 855 822 855 854 823 824 856 823 856 855 824 825 857 824 857 856 825 826 858 825 858 857 826 827 859 826 859 858 827 828 860 827 860 859 828 829 861 828 861 860 829 862 861 846 847 879 846 879 878 847 848 880 847 880 879 848 849 881 848 881 880 849 850 882 849 882 881 850 851 883 850 883 882 851 852 884 851 884 883 852 853 885 852 885 884 853 854 886 853 886 885 854 855 887 854 887 886 855 856 888 855 888 887 856 857 889 856 889 888 857 858 890 857 890 889 858 859 891 858 891 890 859 860 892 859 892 891 860 861 893 860 893 892 861 862 894 861 894 893 878 879 911 878 911 910 879 880 912 879 912 911 880 881 913 880 913 912 881 882 914 881 914 913 882 883 915 882 915 914 883 884 916 883 916 915 884 885 917 884 917 916 885 886 918 885 918 917 886 887 919 886 919 918 887 888 920 887 920 919 888 889 921 888 921 920 889 890 922 889 922 921 890 891 923 890 923 922 891 892 924 891 924 923 892 893 925 892 925 924 893 894 926 893 926 925 910 911 943 910 943 942 911 912 944 911 944 943 912 913 945 912 945 944 913 914 946 913 946 945 914 915 947 914 947 946 915 916 948 915 948 947 916 917 949 916 949 948 942 943 975 942 975 974 943 944 976 943 976 975 944 945 977 944 977 976 945 946 978 945 978 977 946 947 979 946 979 978 947 948 980 947 980 979 948 949 981 948 981 980 974 975 1007 974 1007 1006 975 976 1008 975 1008 1007 976 977 1009 976 1009 1008 977 978 1010 977 1010 1009 978 979 1011 978 1011 1010 979 980 1012 979 1012 1011 980 981 1013 980 1013 1012 1006 1007 1039 1006 1039 1038 1007 1008 1040 1007 1040 1039 1008 1009 1041 1008 1041 1040 1009 1010 1042 1009 1042 1041 1010 1011 1043 1010 1043 1042 1011 1012 1044 1011 1044 1043 1012 1013 1045 1012 1045 1044 1038 1039 1071 1038 1071 1070 1039 1040 1072 1039 1072 1071 1040 1041 1073 1040 1073 1072 1041 1042 1074 1041 1074 1073 1042 1043 1075 1042 1075 1074 1043 1044 1076 1043 1076 1075 1044 1045 1077 1044 1077 1076 1070 1071 1103 1070 1103 1102 1071 1072 1104 1071 1104 1103 1072 1073 1105 1072 1105 1104 1073 1074 1106 1073 1106 1105 1074 1075 1107 1074 1107 1106 1075 1076 1108 1075 1108 1107 1076 1077 1109 1076 1109 1108 1103 1104 1136 1104 1105 1137 1105 1106 1138 1106 1107 1139 1106 1139 1138 1107 1108 1140 1107 1140 1139 1108 1109 1141 1108 1141 1140</p></triangles></mesh></geometry><geometry id="structures" name="ConceptualStructures"><mesh><source id="structures-p"><float_array id="structures-p-array" count="72">56.267 493.860 1.079 98.267 493.860 1.079 98.267 517.860 1.079 56.267 517.860 1.079 56.267 493.860 7.079 98.267 493.860 7.079 98.267 517.860 7.079 56.267 517.860 7.079 51.267 239.041 3.389 103.267 239.041 3.389 103.267 257.041 3.389 51.267 257.041 3.389 51.267 239.041 6.389 103.267 239.041 6.389 103.267 257.041 6.389 51.267 257.041 6.389 -221.948 -142.152 3.895 -179.948 -142.152 3.895 -179.948 -116.152 3.895 -221.948 -116.152 3.895 -221.948 -142.152 7.895 -179.948 -142.152 7.895 -179.948 -116.152 7.895 -221.948 -116.152 7.895</float_array><technique_common><accessor source="#structures-p-array" count="24" stride="3"><param name="X" type="float"/><param name="Y" type="float"/><param name="Z" type="float"/></accessor></technique_common></source><vertices id="structures-v"><input semantic="POSITION" source="#structures-p-p"/></vertices><triangles material="concept" count="36"><input semantic="VERTEX" source="#structures-v" offset="0"/><p>0 1 2 0 2 3 4 6 5 4 7 6 0 4 5 0 5 1 1 5 6 1 6 2 2 6 7 2 7 3 3 7 4 3 4 0 8 9 10 8 10 11 12 14 13 12 15 14 8 12 13 8 13 9 9 13 14 9 14 10 10 14 15 10 15 11 11 15 12 11 12 8 16 17 18 16 18 19 20 22 21 20 23 22 16 20 21 16 21 17 17 21 22 17 22 18 18 22 23 18 23 19 19 23 20 19 20 16</p></triangles></mesh></geometry><geometry id="vegetation" name="ConceptualVegetation"><mesh><source id="vegetation-p"><float_array id="vegetation-p-array" count="756">67.000 -245.000 -2.335 64.950 -240.050 -2.335 60.000 -238.000 -2.335 55.050 -240.050 -2.335 53.000 -245.000 -2.335 55.050 -249.950 -2.335 60.000 -252.000 -2.335 64.950 -249.950 -2.335 60.000 -245.000 7.665 67.000 -185.000 -3.581 64.950 -180.050 -3.581 60.000 -178.000 -3.581 55.050 -180.050 -3.581 53.000 -185.000 -3.581 55.050 -189.950 -3.581 60.000 -192.000 -3.581 64.950 -189.950 -3.581 60.000 -185.000 6.419 67.000 -125.000 -1.008 64.950 -120.050 -1.008 60.000 -118.000 -1.008 55.050 -120.050 -1.008 53.000 -125.000 -1.008 55.050 -129.950 -1.008 60.000 -132.000 -1.008 64.950 -129.950 -1.008 60.000 -125.000 8.992 67.000 -65.000 -1.005 64.950 -60.050 -1.005 60.000 -58.000 -1.005 55.050 -60.050 -1.005 53.000 -65.000 -1.005 55.050 -69.950 -1.005 60.000 -72.000 -1.005 64.950 -69.950 -1.005 60.000 -65.000 8.995 67.000 -5.000 -1.054 64.950 -0.050 -1.054 60.000 2.000 -1.054 55.050 -0.050 -1.054 53.000 -5.000 -1.054 55.050 -9.950 -1.054 60.000 -12.000 -1.054 64.950 -9.950 -1.054 60.000 -5.000 8.946 67.000 55.000 -0.792 64.950 59.950 -0.792 60.000 62.000 -0.792 55.050 59.950 -0.792 53.000 55.000 -0.792 55.050 50.050 -0.792 60.000 48.000 -0.792 64.950 50.050 -0.792 60.000 55.000 9.208 67.000 115.000 -0.245 64.950 119.950 -0.245 60.000 122.000 -0.245 55.050 119.950 -0.245 53.000 115.000 -0.245 55.050 110.050 -0.245 60.000 108.000 -0.245 64.950 110.050 -0.245 60.000 115.000 9.755 107.000 -245.000 -2.314 104.950 -240.050 -2.314 100.000 -238.000 -2.314 95.050 -240.050 -2.314 93.000 -245.000 -2.314 95.050 -249.950 -2.314 100.000 -252.000 -2.314 104.950 -249.950 -2.314 100.000 -245.000 7.686 107.000 -185.000 -2.812 104.950 -180.050 -2.812 100.000 -178.000 -2.812 95.050 -180.050 -2.812 93.000 -185.000 -2.812 95.050 -189.950 -2.812 100.000 -192.000 -2.812 104.950 -189.950 -2.812 100.000 -185.000 7.188 107.000 -125.000 -1.474 104.950 -120.050 -1.474 100.000 -118.000 -1.474 95.050 -120.050 -1.474 93.000 -125.000 -1.474 95.050 -129.950 -1.474 100.000 -132.000 -1.474 104.950 -129.950 -1.474 100.000 -125.000 8.526 107.000 -65.000 -1.754 104.950 -60.050 -1.754 100.000 -58.000 -1.754 95.050 -60.050 -1.754 93.000 -65.000 -1.754 95.050 -69.950 -1.754 100.000 -72.000 -1.754 104.950 -69.950 -1.754 100.000 -65.000 8.246 107.000 -5.000 -1.543 104.950 -0.050 -1.543 100.000 2.000 -1.543 95.050 -0.050 -1.543 93.000 -5.000 -1.543 95.050 -9.950 -1.543 100.000 -12.000 -1.543 104.950 -9.950 -1.543 100.000 -5.000 8.457 107.000 55.000 -0.857 104.950 59.950 -0.857 100.000 62.000 -0.857 95.050 59.950 -0.857 93.000 55.000 -0.857 95.050 50.050 -0.857 100.000 48.000 -0.857 104.950 50.050 -0.857 100.000 55.000 9.143 107.000 115.000 0.145 104.950 119.950 0.145 100.000 122.000 0.145 95.050 119.950 0.145 93.000 115.000 0.145 95.050 110.050 0.145 100.000 108.000 0.145 104.950 110.050 0.145 100.000 115.000 10.145 147.000 -245.000 -1.918 144.950 -240.050 -1.918 140.000 -238.000 -1.918 135.050 -240.050 -1.918 133.000 -245.000 -1.918 135.050 -249.950 -1.918 140.000 -252.000 -1.918 144.950 -249.950 -1.918 140.000 -245.000 8.082 147.000 -185.000 -2.835 144.950 -180.050 -2.835 140.000 -178.000 -2.835 135.050 -180.050 -2.835 133.000 -185.000 -2.835 135.050 -189.950 -2.835 140.000 -192.000 -2.835 144.950 -189.950 -2.835 140.000 -185.000 7.165 147.000 -125.000 -0.982 144.950 -120.050 -0.982 140.000 -118.000 -0.982 135.050 -120.050 -0.982 133.000 -125.000 -0.982 135.050 -129.950 -0.982 140.000 -132.000 -0.982 144.950 -129.950 -0.982 140.000 -125.000 9.018 147.000 -65.000 -3.274 144.950 -60.050 -3.274 140.000 -58.000 -3.274 135.050 -60.050 -3.274 133.000 -65.000 -3.274 135.050 -69.950 -3.274 140.000 -72.000 -3.274 144.950 -69.950 -3.274 140.000 -65.000 6.726 147.000 -5.000 -2.099 144.950 -0.050 -2.099 140.000 2.000 -2.099 135.050 -0.050 -2.099 133.000 -5.000 -2.099 135.050 -9.950 -2.099 140.000 -12.000 -2.099 144.950 -9.950 -2.099 140.000 -5.000 7.901 147.000 55.000 -0.836 144.950 59.950 -0.836 140.000 62.000 -0.836 135.050 59.950 -0.836 133.000 55.000 -0.836 135.050 50.050 -0.836 140.000 48.000 -0.836 144.950 50.050 -0.836 140.000 55.000 9.164 147.000 115.000 0.526 144.950 119.950 0.526 140.000 122.000 0.526 135.050 119.950 0.526 133.000 115.000 0.526 135.050 110.050 0.526 140.000 108.000 0.526 144.950 110.050 0.526 140.000 115.000 10.526 187.000 -245.000 -1.394 184.950 -240.050 -1.394 180.000 -238.000 -1.394 175.050 -240.050 -1.394 173.000 -245.000 -1.394 175.050 -249.950 -1.394 180.000 -252.000 -1.394 184.950 -249.950 -1.394 180.000 -245.000 8.606 187.000 -185.000 -2.134 184.950 -180.050 -2.134 180.000 -178.000 -2.134 175.050 -180.050 -2.134 173.000 -185.000 -2.134 175.050 -189.950 -2.134 180.000 -192.000 -2.134 184.950 -189.950 -2.134 180.000 -185.000 7.866 187.000 -125.000 -2.187 184.950 -120.050 -2.187 180.000 -118.000 -2.187 175.050 -120.050 -2.187 173.000 -125.000 -2.187 175.050 -129.950 -2.187 180.000 -132.000 -2.187 184.950 -129.950 -2.187 180.000 -125.000 7.813 187.000 -65.000 -2.607 184.950 -60.050 -2.607 180.000 -58.000 -2.607 175.050 -60.050 -2.607 173.000 -65.000 -2.607 175.050 -69.950 -2.607 180.000 -72.000 -2.607 184.950 -69.950 -2.607 180.000 -65.000 7.393 187.000 -5.000 -2.478 184.950 -0.050 -2.478 180.000 2.000 -2.478 175.050 -0.050 -2.478 173.000 -5.000 -2.478 175.050 -9.950 -2.478 180.000 -12.000 -2.478 184.950 -9.950 -2.478 180.000 -5.000 7.522 187.000 55.000 -1.655 184.950 59.950 -1.655 180.000 62.000 -1.655 175.050 59.950 -1.655 173.000 55.000 -1.655 175.050 50.050 -1.655 180.000 48.000 -1.655 184.950 50.050 -1.655 180.000 55.000 8.345 187.000 115.000 -0.448 184.950 119.950 -0.448 180.000 122.000 -0.448 175.050 119.950 -0.448 173.000 115.000 -0.448 175.050 110.050 -0.448 180.000 108.000 -0.448 184.950 110.050 -0.448 180.000 115.000 9.552</float_array><technique_common><accessor source="#vegetation-p-array" count="252" stride="3"><param name="X" type="float"/><param name="Y" type="float"/><param name="Z" type="float"/></accessor></technique_common></source><vertices id="vegetation-v"><input semantic="POSITION" source="#vegetation-p-p"/></vertices><triangles material="vegetation" count="224"><input semantic="VERTEX" source="#vegetation-v" offset="0"/><p>0 1 8 1 2 8 2 3 8 3 4 8 4 5 8 5 6 8 6 7 8 7 0 8 9 10 17 10 11 17 11 12 17 12 13 17 13 14 17 14 15 17 15 16 17 16 9 17 18 19 26 19 20 26 20 21 26 21 22 26 22 23 26 23 24 26 24 25 26 25 18 26 27 28 35 28 29 35 29 30 35 30 31 35 31 32 35 32 33 35 33 34 35 34 27 35 36 37 44 37 38 44 38 39 44 39 40 44 40 41 44 41 42 44 42 43 44 43 36 44 45 46 53 46 47 53 47 48 53 48 49 53 49 50 53 50 51 53 51 52 53 52 45 53 54 55 62 55 56 62 56 57 62 57 58 62 58 59 62 59 60 62 60 61 62 61 54 62 63 64 71 64 65 71 65 66 71 66 67 71 67 68 71 68 69 71 69 70 71 70 63 71 72 73 80 73 74 80 74 75 80 75 76 80 76 77 80 77 78 80 78 79 80 79 72 80 81 82 89 82 83 89 83 84 89 84 85 89 85 86 89 86 87 89 87 88 89 88 81 89 90 91 98 91 92 98 92 93 98 93 94 98 94 95 98 95 96 98 96 97 98 97 90 98 99 100 107 100 101 107 101 102 107 102 103 107 103 104 107 104 105 107 105 106 107 106 99 107 108 109 116 109 110 116 110 111 116 111 112 116 112 113 116 113 114 116 114 115 116 115 108 116 117 118 125 118 119 125 119 120 125 120 121 125 121 122 125 122 123 125 123 124 125 124 117 125 126 127 134 127 128 134 128 129 134 129 130 134 130 131 134 131 132 134 132 133 134 133 126 134 135 136 143 136 137 143 137 138 143 138 139 143 139 140 143 140 141 143 141 142 143 142 135 143 144 145 152 145 146 152 146 147 152 147 148 152 148 149 152 149 150 152 150 151 152 151 144 152 153 154 161 154 155 161 155 156 161 156 157 161 157 158 161 158 159 161 159 160 161 160 153 161 162 163 170 163 164 170 164 165 170 165 166 170 166 167 170 167 168 170 168 169 170 169 162 170 171 172 179 172 173 179 173 174 179 174 175 179 175 176 179 176 177 179 177 178 179 178 171 179 180 181 188 181 182 188 182 183 188 183 184 188 184 185 188 185 186 188 186 187 188 187 180 188 189 190 197 190 191 197 191 192 197 192 193 197 193 194 197 194 195 197 195 196 197 196 189 197 198 199 206 199 200 206 200 201 206 201 202 206 202 203 206 203 204 206 204 205 206 205 198 206 207 208 215 208 209 215 209 210 215 210 211 215 211 212 215 212 213 215 213 214 215 214 207 215 216 217 224 217 218 224 218 219 224 219 220 224 220 221 224 221 222 224 222 223 224 223 216 224 225 226 233 226 227 233 227 228 233 228 229 233 229 230 233 230 231 233 231 232 233 232 225 233 234 235 242 235 236 242 236 237 242 237 238 242 238 239 242 239 240 242 240 241 242 241 234 242 243 244 251 244 245 251 245 246 251 246 247 251 247 248 251 248 249 251 249 250 251 250 243 251</p></triangles></mesh></geometry></library_geometries><library_visual_scenes><visual_scene id="Scene"><node id="Terrain"><instance_geometry url="#terrain"><bind_material><technique_common><instance_material symbol="terrain" target="#terrain-material"/></technique_common></bind_material></instance_geometry></node><node id="ConceptualStructures"><instance_geometry url="#structures"><bind_material><technique_common><instance_material symbol="concept" target="#concept-material"/></technique_common></bind_material></instance_geometry></node><node id="ConceptualVegetation"><instance_geometry url="#vegetation"><bind_material><technique_common><instance_material symbol="vegetation" target="#vegetation-material"/></technique_common></bind_material></instance_geometry></node></visual_scene></library_visual_scenes><scene><instance_visual_scene url="#Scene"/></scene></COLLADA>